<svg width="1440" height="300" viewBox="0 0 1440 300" fill="none" xmlns="http://www.w3.org/2000/svg">
<path d="M1 159.735C265.613 37.1945 452.623 13.9355 578.913 18.2414C716.776 22.9409 769.374 60.1078 939.472 59.4717C1139.01 58.7175 1338.45 -10.1167 1441.21 1.7159" stroke="#F6F8F8" stroke-width="0.5" stroke-miterlimit="10"/>
<path d="M1 173.726C265.613 51.1854 452.623 27.9264 578.913 32.2323C716.776 36.9318 769.374 74.0987 939.472 73.4626C1139.01 72.7084 1338.45 3.87416 1441.21 15.7068" stroke="#F6F8F8" stroke-width="0.5" stroke-miterlimit="10"/>
<path d="M1 187.717C265.613 65.1765 452.623 41.9176 578.913 46.2235C716.776 50.9229 769.374 88.0899 939.472 87.4537C1139.01 86.6995 1338.45 17.8653 1441.21 29.698" stroke="#F6F8F8" stroke-width="0.5" stroke-miterlimit="10"/>
<path d="M1 201.708C265.613 79.1674 452.623 55.9085 578.913 60.2144C716.776 64.9138 769.374 102.081 939.472 101.445C1139.01 100.69 1338.45 31.8562 1441.21 43.6889" stroke="#F6F8F8" stroke-width="0.5" stroke-miterlimit="10"/>
<path d="M1 215.699C265.613 93.1586 452.623 69.8996 578.913 74.2055C716.776 78.905 769.374 116.072 939.472 115.436C1139.01 114.682 1338.45 45.8474 1441.21 57.68" stroke="#F6F8F8" stroke-width="0.5" stroke-miterlimit="10"/>
<path d="M1 229.69C265.613 107.149 452.623 83.8905 578.913 88.1965C716.776 92.8959 769.374 130.063 939.472 129.427C1139.01 128.672 1338.45 59.8383 1441.21 71.6709" stroke="#F6F8F8" stroke-width="0.5" stroke-miterlimit="10"/>
<path d="M1 243.681C265.613 121.14 452.623 97.8814 578.913 102.187C716.776 106.887 769.374 144.054 939.472 143.418C1139.01 142.663 1338.45 73.8292 1441.21 85.6618" stroke="#F6F8F8" stroke-width="0.5" stroke-miterlimit="10"/>
<path d="M1 257.672C265.613 135.131 452.623 111.872 578.913 116.178C716.776 120.878 769.374 158.045 939.472 157.408C1139.01 156.654 1338.45 87.8201 1441.21 99.6527" stroke="#F6F8F8" stroke-width="0.5" stroke-miterlimit="10"/>
<path d="M1 271.663C265.613 149.122 452.623 125.863 578.913 130.169C716.776 134.869 769.374 172.036 939.472 171.399C1139.01 170.645 1338.45 101.811 1441.21 113.644" stroke="#F6F8F8" stroke-width="0.5" stroke-miterlimit="10"/>
<path d="M1 285.654C265.613 163.114 452.623 139.855 578.913 144.161C716.776 148.86 769.374 186.027 939.472 185.391C1139.01 184.637 1338.45 115.802 1441.21 127.635" stroke="#F6F8F8" stroke-width="0.5" stroke-miterlimit="10"/>
<path d="M1 299.645C265.613 177.104 452.623 153.845 578.913 158.151C716.776 162.851 769.374 200.018 939.472 199.382C1139.01 198.627 1338.45 129.793 1441.21 141.626" stroke="#F6F8F8" stroke-width="0.5" stroke-miterlimit="10"/>
</svg>
